<svg xmlns="http://www.w3.org/2000/svg" viewBox="0 0 800 600" fill="#1A1A2E">
  <!-- Sparrowhawk soaring — wings spread wide, tail fanned
       Accipiter nisus: short rounded wings, long graduated tail -->
  <path d="
    M 400 180
    C 395 175, 380 160, 350 145
    C 320 130, 275 115, 220 105
    C 180 97, 135 95, 90 100
    C 65 103, 40 110, 20 120
    C 35 118, 55 112, 80 108
    C 110 104, 150 105, 195 112
    C 240 119, 290 132, 330 148
    C 355 158, 375 168, 390 178
    L 385 182
    C 378 188, 372 195, 368 205
    C 362 220, 358 240, 356 265
    C 354 290, 348 320, 340 350
    C 332 380, 320 405, 305 430
    C 295 448, 290 460, 288 475
    L 310 465
    C 325 445, 340 420, 355 395
    C 370 370, 382 345, 390 318
    L 395 305
    L 398 318
    C 405 345, 415 370, 430 395
    C 445 420, 460 445, 478 465
    L 500 475
    C 498 460, 492 448, 482 430
    C 468 405, 455 380, 448 350
    C 440 320, 434 290, 432 265
    C 430 240, 426 220, 420 205
    C 416 195, 410 188, 403 182
    L 398 178
    C 413 168, 433 158, 458 148
    C 498 132, 548 119, 593 112
    C 638 105, 678 104, 708 108
    C 733 112, 753 118, 768 120
    C 748 110, 723 103, 698 100
    C 653 95, 608 97, 568 105
    C 513 115, 468 130, 438 145
    C 408 160, 393 175, 388 180
    Z
  " />
  <!-- Head -->
  <ellipse cx="394" cy="175" rx="12" ry="8" />
  <path d="M 382 173 C 378 170, 374 172, 376 176 C 378 178, 382 177, 382 173 Z" />
</svg>
