<svg xmlns="http://www.w3.org/2000/svg" viewBox="0 0 300 500" fill="#1A1A2E">
  <!-- Sparrowhawk perched — alert, head turned, classic Accipiter profile -->
  <path d="
    M 158 30
    C 148 28, 138 32, 132 40
    C 126 50, 124 62, 128 72
    C 130 78, 134 82, 140 86
    C 132 84, 126 78, 122 70
    C 118 58, 120 46, 128 36
    L 125 34
    C 120 30, 116 34, 114 40
    C 110 52, 114 68, 124 78
    L 130 84
    C 128 88, 128 92, 130 96
    C 132 102, 138 108, 145 112
    C 148 116, 150 122, 152 130
    C 154 140, 155 152, 156 165
    C 157 180, 158 195, 158 210
    C 158 225, 156 240, 154 255
    C 150 280, 145 305, 142 330
    C 140 350, 138 368, 136 385
    C 134 400, 132 412, 130 422
    C 128 438, 126 450, 125 462
    C 124 470, 122 478, 118 485
    L 112 495
    L 130 490
    C 134 482, 136 472, 138 462
    L 140 445
    C 142 460, 144 475, 148 488
    L 152 495
    L 168 490
    C 164 482, 160 472, 158 462
    C 155 445, 152 430, 150 418
    C 160 410, 168 398, 174 385
    C 182 365, 188 342, 190 320
    C 192 300, 192 278, 190 258
    C 188 238, 185 220, 182 205
    C 180 190, 178 178, 176 168
    C 174 155, 172 142, 170 130
    C 168 118, 166 110, 168 102
    C 170 96, 174 90, 178 86
    C 182 82, 186 76, 186 68
    C 186 58, 180 48, 172 40
    C 166 32, 160 30, 158 30
    Z
  " />
  <!-- Eye -->
  <circle cx="140" cy="52" r="4" fill="none" stroke="#1A1A2E" stroke-width="1.5"/>
  <circle cx="140" cy="52" r="1.5" />
</svg>
