<svg xmlns="http://www.w3.org/2000/svg" viewBox="0 0 400 800" fill="#1A1A2E">
  <!-- Sparrowhawk diving/stooping — wings swept back,
       body streamlined, classic Accipiter hunting dive -->
  <path d="
    M 200 40
    C 195 45, 190 55, 188 70
    C 186 85, 185 95, 186 110
    C 187 125, 190 140, 195 155
    C 200 170, 205 180, 208 190
    C 195 195, 175 210, 148 230
    C 120 252, 88 268, 60 288
    C 45 298, 35 305, 30 312
    C 38 310, 50 305, 68 298
    C 95 282, 128 268, 155 252
    C 178 238, 195 225, 205 215
    C 208 225, 212 242, 215 260
    C 218 290, 220 320, 218 355
    C 216 390, 212 420, 208 450
    C 204 480, 200 510, 198 540
    C 196 570, 194 598, 190 625
    C 186 652, 180 678, 172 700
    C 168 718, 162 732, 155 745
    L 175 740
    C 182 728, 190 712, 196 695
    L 200 680
    L 204 695
    C 210 712, 218 728, 225 740
    L 245 745
    C 238 732, 232 718, 228 700
    C 220 678, 214 652, 210 625
    C 206 598, 204 570, 202 540
    C 200 510, 196 480, 192 450
    C 188 420, 184 390, 182 355
    C 180 320, 182 290, 185 260
    C 188 242, 192 225, 195 215
    C 205 225, 222 238, 245 252
    C 272 268, 305 282, 332 298
    C 350 305, 362 310, 370 312
    C 365 305, 355 298, 340 288
    C 312 268, 280 252, 252 230
    C 225 210, 205 195, 192 190
    C 195 180, 200 170, 205 155
    C 210 140, 213 125, 214 110
    C 215 95, 214 85, 212 70
    C 210 55, 205 45, 200 40
    Z
  " />
  <!-- Head -->
  <ellipse cx="200" cy="38" rx="10" ry="14" />
  <path d="M 195 24 C 192 20, 196 16, 200 20 C 202 22, 198 26, 195 24 Z" />
</svg>
